<svg width="47" height="47" viewBox="0 0 47 47" fill="none" xmlns="http://www.w3.org/2000/svg">
<mask id="mask0_286_417" style="mask-type:alpha" maskUnits="userSpaceOnUse" x="0" y="0" width="47" height="47">
<rect width="46.2755" height="46.2755" fill="#D9D9D9"/>
</mask>
<g mask="url(#mask0_286_417)">
<path d="M11.5692 38.5628C10.5087 38.5628 9.60087 38.1852 8.84568 37.43C8.09049 36.6749 7.71289 35.767 7.71289 34.7065C7.71289 33.6461 8.09049 32.7382 8.84568 31.983C9.60087 31.2278 10.5087 30.8503 11.5692 30.8503C12.6297 30.8503 13.5375 31.2278 14.2927 31.983C15.0479 32.7382 15.4255 33.6461 15.4255 34.7065C15.4255 35.767 15.0479 36.6749 14.2927 37.43C13.5375 38.1852 12.6297 38.5628 11.5692 38.5628ZM23.138 38.5628C22.0776 38.5628 21.1697 38.1852 20.4145 37.43C19.6594 36.6749 19.2818 35.767 19.2818 34.7065C19.2818 33.6461 19.6594 32.7382 20.4145 31.983C21.1697 31.2278 22.0776 30.8503 23.138 30.8503C24.1985 30.8503 25.1064 31.2278 25.8615 31.983C26.6167 32.7382 26.9943 33.6461 26.9943 34.7065C26.9943 35.767 26.6167 36.6749 25.8615 37.43C25.1064 38.1852 24.1985 38.5628 23.138 38.5628ZM34.7069 38.5628C33.6464 38.5628 32.7386 38.1852 31.9834 37.43C31.2282 36.6749 30.8506 35.767 30.8506 34.7065C30.8506 33.6461 31.2282 32.7382 31.9834 31.983C32.7386 31.2278 33.6464 30.8503 34.7069 30.8503C35.7674 30.8503 36.6752 31.2278 37.4304 31.983C38.1856 32.7382 38.5632 33.6461 38.5632 34.7065C38.5632 35.767 38.1856 36.6749 37.4304 37.43C36.6752 38.1852 35.7674 38.5628 34.7069 38.5628ZM11.5692 26.994C10.5087 26.994 9.60087 26.6164 8.84568 25.8612C8.09049 25.106 7.71289 24.1982 7.71289 23.1377C7.71289 22.0772 8.09049 21.1694 8.84568 20.4142C9.60087 19.659 10.5087 19.2814 11.5692 19.2814C12.6297 19.2814 13.5375 19.659 14.2927 20.4142C15.0479 21.1694 15.4255 22.0772 15.4255 23.1377C15.4255 24.1982 15.0479 25.106 14.2927 25.8612C13.5375 26.6164 12.6297 26.994 11.5692 26.994ZM23.138 26.994C22.0776 26.994 21.1697 26.6164 20.4145 25.8612C19.6594 25.106 19.2818 24.1982 19.2818 23.1377C19.2818 22.0772 19.6594 21.1694 20.4145 20.4142C21.1697 19.659 22.0776 19.2814 23.138 19.2814C24.1985 19.2814 25.1064 19.659 25.8615 20.4142C26.6167 21.1694 26.9943 22.0772 26.9943 23.1377C26.9943 24.1982 26.6167 25.106 25.8615 25.8612C25.1064 26.6164 24.1985 26.994 23.138 26.994ZM34.7069 26.994C33.6464 26.994 32.7386 26.6164 31.9834 25.8612C31.2282 25.106 30.8506 24.1982 30.8506 23.1377C30.8506 22.0772 31.2282 21.1694 31.9834 20.4142C32.7386 19.659 33.6464 19.2814 34.7069 19.2814C35.7674 19.2814 36.6752 19.659 37.4304 20.4142C38.1856 21.1694 38.5632 22.0772 38.5632 23.1377C38.5632 24.1982 38.1856 25.106 37.4304 25.8612C36.6752 26.6164 35.7674 26.994 34.7069 26.994ZM11.5692 15.4251C10.5087 15.4251 9.60087 15.0475 8.84568 14.2923C8.09049 13.5371 7.71289 12.6293 7.71289 11.5688C7.71289 10.5083 8.09049 9.6005 8.84568 8.84531C9.60087 8.09012 10.5087 7.71252 11.5692 7.71252C12.6297 7.71252 13.5375 8.09012 14.2927 8.84531C15.0479 9.6005 15.4255 10.5083 15.4255 11.5688C15.4255 12.6293 15.0479 13.5371 14.2927 14.2923C13.5375 15.0475 12.6297 15.4251 11.5692 15.4251ZM23.138 15.4251C22.0776 15.4251 21.1697 15.0475 20.4145 14.2923C19.6594 13.5371 19.2818 12.6293 19.2818 11.5688C19.2818 10.5083 19.6594 9.6005 20.4145 8.84531C21.1697 8.09012 22.0776 7.71252 23.138 7.71252C24.1985 7.71252 25.1064 8.09012 25.8615 8.84531C26.6167 9.6005 26.9943 10.5083 26.9943 11.5688C26.9943 12.6293 26.6167 13.5371 25.8615 14.2923C25.1064 15.0475 24.1985 15.4251 23.138 15.4251ZM34.7069 15.4251C33.6464 15.4251 32.7386 15.0475 31.9834 14.2923C31.2282 13.5371 30.8506 12.6293 30.8506 11.5688C30.8506 10.5083 31.2282 9.6005 31.9834 8.84531C32.7386 8.09012 33.6464 7.71252 34.7069 7.71252C35.7674 7.71252 36.6752 8.09012 37.4304 8.84531C38.1856 9.6005 38.5632 10.5083 38.5632 11.5688C38.5632 12.6293 38.1856 13.5371 37.4304 14.2923C36.6752 15.0475 35.7674 15.4251 34.7069 15.4251Z" fill="white"/>
</g>
</svg>
