<svg width="47" height="47" viewBox="0 0 47 47" fill="none" xmlns="http://www.w3.org/2000/svg">
<mask id="mask0_286_407" style="mask-type:alpha" maskUnits="userSpaceOnUse" x="0" y="0" width="47" height="47">
<rect width="46.2755" height="46.2755" fill="#D9D9D9"/>
</mask>
<g mask="url(#mask0_286_407)">
<path d="M12.5325 38.5631C9.60817 38.5631 7.10962 37.5508 5.03687 35.5262C2.96411 33.5017 1.92773 31.0272 1.92773 28.1029C1.92773 25.5963 2.68292 23.3629 4.1933 21.4026C5.70368 19.4423 7.68003 18.189 10.1223 17.6427C10.9257 14.6862 12.5325 12.2921 14.9427 10.4604C17.3529 8.62864 20.0844 7.71277 23.1373 7.71277C26.8972 7.71277 30.0867 9.0223 32.7057 11.6414C35.3248 14.2604 36.6343 17.4499 36.6343 21.2098C38.8517 21.4669 40.6915 22.4229 42.1536 24.0779C43.6158 25.7329 44.3469 27.6691 44.3469 29.8864C44.3469 32.2966 43.5033 34.3453 41.8162 36.0324C40.1291 37.7195 38.0804 38.5631 35.6703 38.5631H12.5325ZM12.5325 34.7068H35.6703C37.02 34.7068 38.1608 34.2408 39.0927 33.3089C40.0246 32.3769 40.4906 31.2361 40.4906 29.8864C40.4906 28.5367 40.0246 27.3959 39.0927 26.464C38.1608 25.532 37.02 25.0661 35.6703 25.0661H32.778V21.2098C32.778 18.5425 31.8381 16.2689 29.9581 14.389C28.0782 12.509 25.8046 11.5691 23.1373 11.5691C20.4701 11.5691 18.1965 12.509 16.3165 14.389C14.4366 16.2689 13.4966 18.5425 13.4966 21.2098H12.5325C10.6687 21.2098 9.07794 21.8686 7.76037 23.1861C6.44281 24.5037 5.78402 26.0944 5.78402 27.9583C5.78402 29.8222 6.44281 31.4129 7.76037 32.7304C9.07794 34.048 10.6687 34.7068 12.5325 34.7068Z" fill="white"/>
</g>
</svg>
