<svg width="47" height="47" viewBox="0 0 47 47" fill="none" xmlns="http://www.w3.org/2000/svg">
<mask id="mask0_286_397" style="mask-type:alpha" maskUnits="userSpaceOnUse" x="0" y="0" width="47" height="47">
<rect width="46.2755" height="46.2755" fill="#D9D9D9"/>
</mask>
<g mask="url(#mask0_286_397)">
<path d="M20.2458 28.9222H26.0303L24.9216 22.7039C25.5643 22.3826 26.0704 21.9166 26.44 21.306C26.8096 20.6954 26.9943 20.0206 26.9943 19.2815C26.9943 18.221 26.6167 17.3132 25.8615 16.558C25.1064 15.8028 24.1985 15.4252 23.138 15.4252C22.0776 15.4252 21.1697 15.8028 20.4145 16.558C19.6594 17.3132 19.2818 18.221 19.2818 19.2815C19.2818 20.0206 19.4665 20.6954 19.8361 21.306C20.2057 21.9166 20.7118 22.3826 21.3545 22.7039L20.2458 28.9222ZM23.138 42.4192C18.6712 41.2945 14.9836 38.7316 12.0753 34.7307C9.16703 30.7298 7.71289 26.2871 7.71289 21.4024V9.64076L23.138 3.85632L38.5632 9.64076V21.4024C38.5632 26.2871 37.1091 30.7298 34.2008 34.7307C31.2925 38.7316 27.6049 41.2945 23.138 42.4192ZM23.138 38.3701C26.4802 37.3096 29.2438 35.1887 31.4291 32.0072C33.6143 28.8258 34.7069 25.2909 34.7069 21.4024V12.292L23.138 7.95363L11.5692 12.292V21.4024C11.5692 25.2909 12.6618 28.8258 14.847 32.0072C17.0323 35.1887 19.7959 37.3096 23.138 38.3701Z" fill="white"/>
</g>
</svg>
