<svg width="146" height="33" viewBox="0 0 146 33" fill="none" xmlns="http://www.w3.org/2000/svg">
<path d="M71.2739 10.0098L70.1585 15.6296H64.3885L65.5039 10.0098H61.2569L58.2539 25.0246H62.501L63.6592 19.1903H69.4292L68.2709 25.0246H72.518L75.521 10.0098H71.2739Z" fill="white"/>
<path d="M82.4206 25.3249C86.8392 25.3249 89.4776 23.0083 90.3784 18.5253L92.073 10.0098H87.8903L86.2386 18.2679C85.7239 20.799 84.7157 21.8071 82.9354 21.8071C81.3266 21.8071 80.4472 21.0564 80.4472 19.4477C80.4472 19.083 80.4901 18.6969 80.5759 18.2679L82.2275 10.0098H77.9805L76.3074 18.3323C76.2002 18.89 76.1358 19.4262 76.1358 19.9196C76.1358 23.2443 78.4953 25.3249 82.4206 25.3249Z" fill="white"/>
<path d="M97.138 25.3249C101.535 25.3249 104.367 23.2014 104.367 19.9839C104.367 15.3508 97.0522 16.5305 97.0736 14.4713C97.0736 13.6562 98.0174 13.0127 99.7763 13.0127C101.256 13.0127 102.715 13.3988 103.895 14.1496L105.439 10.9965C104.088 10.1599 102.157 9.70947 100.034 9.70947C95.5936 9.70947 92.8266 11.833 92.8266 15.0719C92.8266 19.7909 100.119 18.6755 100.119 20.6918C100.119 21.5068 99.1757 22.0216 97.5455 22.0216C95.8295 22.0216 94.0707 21.5068 92.5477 20.5416L90.8746 23.7162C92.226 24.6385 94.564 25.3249 97.138 25.3249Z" fill="white"/>
<path d="M107.964 25.0246H112.211L114.549 13.3774H119.139L119.825 10.0098H106.376L105.69 13.3774H110.302L107.964 25.0246Z" fill="white"/>
<path d="M117.976 25.0246H129.387L130.073 21.657H122.909L125.226 10.0098H120.979L117.976 25.0246Z" fill="white"/>
<path d="M144.731 13.2916L145.396 10.0098H133.641L130.638 25.0246H142.672L143.358 21.7428H135.486L136.022 18.9972H142.715L143.337 15.8227H136.666L137.159 13.2916H144.731Z" fill="white"/>
<path d="M27.0769 7.83038C27.9035 7.0004 28.4171 5.85408 28.4171 4.5887C28.4171 2.05454 26.3626 0 23.8284 0C22.2263 0 20.818 0.823176 19.9982 2.06815C19.7806 2.28585 1.5142 24.8007 1.34412 25.0593C0.517541 25.8892 0.00390625 27.0356 0.00390625 28.3009C0.00390625 30.8351 2.05845 32.8896 4.5926 32.8896C6.19474 32.8896 7.60298 32.0665 8.42276 30.8215C8.64046 30.6038 26.9068 8.0889 27.0769 7.83038Z" fill="white"/>
<path d="M37.6436 18.511C38.4736 17.681 38.9872 16.5347 38.9872 15.2659C38.9872 12.7318 36.9327 10.6772 34.3985 10.6772C32.7964 10.6772 31.3881 11.5004 30.565 12.7454C30.3439 12.9665 20.7515 24.7903 20.578 25.0522C19.748 25.8822 19.2344 27.0285 19.2344 28.2973C19.2344 30.8315 21.2889 32.886 23.8231 32.886C25.4252 32.886 26.8334 32.0628 27.6566 30.8179C27.8777 30.5968 37.4701 18.7729 37.6436 18.511Z" fill="white"/>
<path d="M47.654 4.5887C47.654 7.12286 45.5994 9.1774 43.0653 9.1774C40.5311 9.1774 38.4766 7.12286 38.4766 4.5887C38.4766 2.05454 40.5311 0 43.0653 0C45.5994 0 47.654 2.05454 47.654 4.5887Z" fill="white"/>
<path d="M9.1774 4.5887C9.1774 7.12286 7.12286 9.1774 4.5887 9.1774C2.05454 9.1774 0 7.12286 0 4.5887C0 2.05454 2.05454 0 4.5887 0C7.12286 0 9.1774 2.05454 9.1774 4.5887Z" fill="white"/>
</svg>
