<svg width="142" height="34" viewBox="0 0 142 34" fill="none" xmlns="http://www.w3.org/2000/svg">
<path d="M0 0C9.49986 0 17.2103 7.71041 17.2103 17.2103V33.5638C7.71041 33.5638 0 25.8534 0 16.3536V0Z" fill="white"/>
<path d="M18.7188 19.6488V10.9618C18.7188 4.90928 23.628 0 29.6835 0V8.68701C29.6835 14.7425 24.7742 19.6518 18.7188 19.6518V19.6488Z" fill="white"/>
<path d="M18.7188 21.3535H31.2917C38.0313 21.3535 43.502 26.8242 43.502 33.5639H30.9291C24.1894 33.5639 18.7188 28.0932 18.7188 21.3535Z" fill="white"/>
<path d="M69.2049 25.0205H65.429L61.3205 18.4126L59.9152 19.4209V25.0205H56.5898V9.33745H59.9152V16.5139L61.224 14.6688L65.4719 9.33745H69.162L63.6912 16.2779L69.2049 25.0205Z" fill="white"/>
<path d="M70.3424 9.92744C70.3424 8.86188 70.936 8.3291 72.1231 8.3291C73.3103 8.3291 73.9038 8.86188 73.9038 9.92744C73.9038 10.4352 73.7536 10.8321 73.4533 11.1181C73.1601 11.3971 72.7167 11.5365 72.1231 11.5365C70.936 11.5365 70.3424 11.0001 70.3424 9.92744ZM73.7536 25.0205H70.4819V13.0276H73.7536V25.0205Z" fill="white"/>
<path d="M81.8101 22.6283C82.3822 22.6283 83.0688 22.5032 83.8697 22.2529V24.6879C83.0545 25.0527 82.0533 25.235 80.8661 25.235C79.5574 25.235 78.6027 24.906 78.002 24.2481C77.4084 23.583 77.1117 22.589 77.1117 21.266V15.4841H75.5455V14.1003L77.3476 13.0061L78.2916 10.4745H80.3834V13.0276H83.741V15.4841H80.3834V21.266C80.3834 21.7308 80.5121 22.0741 80.7696 22.2958C81.0342 22.5175 81.381 22.6283 81.8101 22.6283Z" fill="white"/>
<path d="M101.398 25.0205H97.6116L95.4876 16.7821C95.4089 16.4889 95.2731 15.8846 95.08 14.9692C94.894 14.0466 94.7868 13.4281 94.7582 13.1134C94.7153 13.4996 94.608 14.1217 94.4363 14.9799C94.2647 15.8309 94.1324 16.4388 94.0394 16.8035L91.9262 25.0205H88.1503L84.1491 9.33745H87.4208L89.4268 17.8977C89.7772 19.4781 90.0311 20.8476 90.1884 22.0062C90.2313 21.5985 90.3279 20.9692 90.4781 20.1182C90.6354 19.26 90.782 18.5949 90.9179 18.1229L93.2027 9.33745H96.3458L98.6306 18.1229C98.7308 18.5163 98.8559 19.117 99.0061 19.9251C99.1563 20.7332 99.2707 21.4269 99.3494 22.0062C99.4209 21.4483 99.5353 20.7547 99.6926 19.9251C99.85 19.0884 99.993 18.4126 100.122 17.8977L102.117 9.33745H105.389L101.398 25.0205Z" fill="white"/>
<path d="M109.272 19.0026C109.272 20.1897 109.465 21.0872 109.852 21.6951C110.245 22.3029 110.881 22.6069 111.761 22.6069C112.634 22.6069 113.259 22.3065 113.638 21.7058C114.024 21.0979 114.218 20.1969 114.218 19.0026C114.218 17.8154 114.024 16.9251 113.638 16.3315C113.252 15.738 112.619 15.4412 111.74 15.4412C110.867 15.4412 110.238 15.738 109.852 16.3315C109.465 16.9179 109.272 17.8083 109.272 19.0026ZM117.564 19.0026C117.564 20.9549 117.05 22.4817 116.02 23.583C114.99 24.6844 113.556 25.235 111.718 25.235C110.567 25.235 109.551 24.9847 108.672 24.4841C107.792 23.9764 107.116 23.2505 106.644 22.3065C106.172 21.3625 105.936 20.2612 105.936 19.0026C105.936 17.0431 106.448 15.5198 107.47 14.4328C108.493 13.3458 109.93 12.8023 111.783 12.8023C112.934 12.8023 113.949 13.0526 114.829 13.5532C115.709 14.0538 116.384 14.7725 116.856 15.7093C117.328 16.6462 117.564 17.7439 117.564 19.0026Z" fill="white"/>
<path d="M126.522 12.8023C126.965 12.8023 127.334 12.8345 127.627 12.8988L127.38 15.9668C127.116 15.8953 126.794 15.8595 126.415 15.8595C125.371 15.8595 124.555 16.1277 123.969 16.6641C123.39 17.2004 123.1 17.9513 123.1 18.9168V25.0205H119.828V13.0276H122.306L122.789 15.0443H122.95C123.322 14.372 123.822 13.8321 124.452 13.4245C125.088 13.0097 125.778 12.8023 126.522 12.8023Z" fill="white"/>
<path d="M132.508 18.4984L133.935 16.6748L137.292 13.0276H140.983L136.22 18.2302L141.272 25.0205H137.496L134.042 20.1611L132.637 21.2874V25.0205H129.365V8.3291H132.637V15.7737L132.465 18.4984H132.508Z" fill="white"/>
</svg>
