<svg width="109" height="36" viewBox="0 0 109 36" fill="none" xmlns="http://www.w3.org/2000/svg">
<path d="M0 9.19351H1.94807L6.46007 23.559L10.9846 9.19351H12.8447L17.3441 23.559L21.8687 9.19351H23.8293L18.2993 26.3617H16.4141L11.9147 12.3607L7.40268 26.3617H5.50488L0 9.19351Z" fill="white"/>
<path d="M33.1806 26.5628C27.8768 26.5628 25.2249 23.6302 25.2249 17.765C25.2249 11.8999 27.8768 8.96729 33.1806 8.96729C38.5012 8.96729 41.1614 11.8999 41.1614 17.765C41.1614 23.6302 38.5012 26.5628 33.1806 26.5628ZM28.5429 12.411C27.5626 13.5421 27.0725 15.3268 27.0725 17.765C27.0725 20.2033 27.5626 21.988 28.5429 23.1191C29.5233 24.2502 31.0691 24.8158 33.1806 24.8158C35.3088 24.8158 36.8589 24.2502 37.8309 23.1191C38.8112 21.988 39.3013 20.2033 39.3013 17.765C39.3013 15.3268 38.8112 13.5421 37.8309 12.411C36.8589 11.2798 35.3088 10.7143 33.1806 10.7143C31.0691 10.7143 29.5233 11.2798 28.5429 12.411Z" fill="white"/>
<path d="M80.0781 26.3615V9.19336H86.3874C88.2558 9.19336 89.6928 9.62068 90.6983 10.4753C91.7037 11.3216 92.2065 12.5575 92.2065 14.1829C92.2065 14.9203 92.0892 15.5906 91.8545 16.1939C91.6199 16.7971 91.3518 17.2663 91.0502 17.6015C90.7569 17.9367 90.405 18.2299 89.9945 18.4813C89.5839 18.7243 89.2487 18.8876 88.989 18.9714C88.7293 19.0468 88.4863 19.1097 88.26 19.16L92.9731 26.3615H90.7863L86.312 19.4365H81.9382V26.3615H80.0781ZM81.9382 17.6895H86.2868C87.1415 17.6895 87.8537 17.5931 88.4234 17.4004C89.0016 17.1993 89.4205 16.9228 89.6802 16.5709C89.94 16.219 90.1159 15.8713 90.2081 15.5277C90.3003 15.1842 90.3464 14.782 90.3464 14.3212C90.3464 13.852 90.3003 13.4456 90.2081 13.1021C90.1159 12.7585 89.94 12.4108 89.6802 12.0589C89.4205 11.707 89.0016 11.4347 88.4234 11.242C87.8537 11.0409 87.1415 10.9403 86.2868 10.9403H81.9382V17.6895Z" fill="white"/>
<path d="M95.4244 26.3615V9.19336H97.2845V18.0414L105.228 9.19336H107.729L100.364 17.2245L108.319 26.3615H105.881L99.1572 18.5315L97.2845 20.5927V26.3615H95.4244Z" fill="white"/>
<path d="M51.2126 15.743C53.2418 17.0958 55.9979 17.4874 58.3415 17.4874C61.6167 17.4874 64.1057 16.7991 65.8026 15.4167C67.5025 14.0372 68.351 12.2246 68.351 9.9788C68.351 7.38595 66.9952 4.9533 64.6427 3.78147C63.8832 3.40174 63.1059 3.10211 62.2782 2.90335C61.0797 2.61558 59.7685 2.47021 58.3415 2.47021C55.0663 2.47021 52.5773 3.16144 50.8804 4.54094C49.1805 5.92339 48.332 7.73602 48.332 9.9788C48.332 11.3138 48.5812 12.4589 49.0826 13.4142C49.5988 14.3991 50.3375 15.1586 51.2126 15.743ZM55.9979 4.8376C56.5585 3.86751 57.3388 3.38098 58.3415 3.38098C59.3442 3.38098 60.1245 3.86751 60.6852 4.8376C61.2459 5.80769 61.5277 7.52242 61.5277 9.9788C61.5277 12.4352 61.2459 14.1499 60.6852 15.12C60.1245 16.0901 59.3442 16.5766 58.3415 16.5766C57.3388 16.5766 56.5585 16.0931 55.9979 15.12C55.4372 14.1499 55.1553 12.4352 55.1553 9.9788C55.1553 7.52242 55.4342 5.80769 55.9979 4.8376Z" fill="white"/>
<path d="M68.2373 21.5165C66.9468 20.1963 65.1669 19.5377 62.8914 19.5377H54.2466C52.882 19.5377 51.9326 19.4013 51.4016 19.1284C50.9803 18.9118 50.6451 18.5528 50.6125 18.0604C50.5858 17.6628 50.7786 17.3632 51.0011 17.0636C49.5415 16.939 47.9692 17.7696 47.4916 19.1788C46.8389 21.1071 47.3937 23.2401 49.0105 24.495C50.2239 25.4354 51.9682 25.9071 54.2437 25.9071H62.8885C66.5286 25.9071 68.3501 26.8921 68.3501 28.8649C68.3501 30.4105 67.4927 31.7099 65.778 32.7542C63.8734 33.9171 61.6217 34.46 59.4086 34.5905C57.0293 34.73 54.8429 34.3591 52.6357 33.4958C53.5287 32.8343 54.0864 31.7366 54.0775 30.6241C54.0686 29.5116 53.4872 28.4169 52.5616 27.7999C51.6389 27.1828 50.3959 27.0641 49.3784 27.5121C48.6901 27.8147 48.1175 28.3546 47.7259 28.9954C47.3492 29.6125 47.1296 30.3423 47.2068 31.0632C47.2958 31.8938 47.7764 32.6503 48.4053 33.2021C50.215 34.8012 53.0896 35.2729 55.4096 35.528C58.0232 35.8158 60.5775 35.6051 63.1406 35.0682C65.2529 34.6261 67.377 33.6323 68.7328 31.8968C69.78 30.5559 70.1716 28.7136 70.1716 27.0463C70.1716 24.679 69.5278 22.8367 68.2373 21.5165Z" fill="white"/>
<path d="M73.2556 7.71146C75.0496 7.04069 75.9602 5.04258 75.2894 3.24854C74.6187 1.45451 72.6206 0.543913 70.8265 1.21468C69.0325 1.88544 68.1219 3.88355 68.7926 5.67759C69.4634 7.47163 71.4615 8.38222 73.2556 7.71146Z" fill="white"/>
</svg>
